<svg width="33" height="23" viewBox="0 0 33 23" fill="none" xmlns="http://www.w3.org/2000/svg">
<g clip-path="url(#clip0)">
<path d="M28.6157 0H4.40527C2.242 0 0.484863 1.65738 0.484863 3.69782V19.31C0.484863 21.3504 2.242 23.0078 4.40527 23.0078H28.6157C30.7789 23.0078 32.5361 21.3504 32.5361 19.31V3.70564C32.5361 1.66519 30.7789 0 28.6157 0ZM30.7458 19.31C30.7458 20.4201 29.7926 21.3192 28.6157 21.3192H4.40527C3.22832 21.3192 2.27516 20.4201 2.27516 19.31V3.70564C2.27516 2.59551 3.22832 1.69647 4.40527 1.69647H28.6157C29.7926 1.69647 30.7458 2.59551 30.7458 3.70564V19.31Z" fill="#7F7F7F"/>
<path d="M20.692 11.3046L28.5328 4.67511C28.8975 4.3624 28.9307 3.83078 28.5991 3.47898C28.2676 3.135 27.704 3.10373 27.331 3.41644L16.5229 12.5633L14.4177 10.7886C14.4094 10.7808 14.4011 10.773 14.4011 10.773C14.3514 10.7261 14.3099 10.6948 14.2519 10.6557L5.67344 3.41644C5.30046 3.10373 4.73685 3.135 4.40532 3.4868C4.07378 3.8386 4.10694 4.37021 4.47991 4.68293L12.4119 11.3672L4.51307 18.3406C4.15667 18.6612 4.1318 19.1928 4.47163 19.5368C4.65397 19.7088 4.88604 19.8026 5.12641 19.8026C5.34191 19.8026 5.56569 19.7244 5.73975 19.5759L13.7546 12.5007L15.9262 14.3301C16.1002 14.4708 16.3074 14.5412 16.5229 14.5412C16.7384 14.5412 16.9539 14.463 17.1197 14.3223L19.3576 12.4304L27.331 19.5759C27.5051 19.7322 27.7288 19.8104 27.9443 19.8104C28.1847 19.8104 28.4168 19.7244 28.5908 19.5446C28.9307 19.2084 28.9141 18.669 28.5577 18.3485L20.692 11.3046Z" fill="#7F7F7F"/>
</g>
<defs>
<clipPath id="clip0">
<rect width="32.0429" height="23" fill="white" transform="translate(0.484863)"/>
</clipPath>
</defs>
</svg>
