<svg width="32" height="32" viewBox="0 0 32 32" fill="none" xmlns="http://www.w3.org/2000/svg">
<g clip-path="url(#clip0)">
<path d="M13.1496 27.89L13.0558 28.3446L13.1496 27.89C12.8933 27.8402 12.6433 28.0021 12.5933 28.2574C12.5433 28.5127 12.7058 28.7556 12.9621 28.8054H12.9683C12.9996 28.8116 13.0246 28.8116 13.0558 28.8116C13.2746 28.8116 13.4746 28.6559 13.5183 28.4318C13.5683 28.1827 13.3996 27.9398 13.1496 27.89ZM16.7308 28.0395L16.7746 28.5065L16.7308 28.0395C16.4746 28.0644 16.2871 28.2948 16.3121 28.5501C16.3371 28.7929 16.5433 28.9673 16.7808 28.9673C16.7996 28.9673 16.8121 28.9673 16.8308 28.9673H16.8433C17.0996 28.9361 17.2808 28.7057 17.2558 28.4504C17.2183 28.1951 16.9871 28.0146 16.7308 28.0395ZM14.9371 28.0955H14.9308C14.6746 28.0831 14.4558 28.2823 14.4433 28.5438C14.4308 28.7991 14.6371 29.0171 14.8933 29.0295C14.8996 29.0295 14.9058 29.0295 14.9121 29.0295C15.1621 29.0295 15.3683 28.8365 15.3808 28.5812C15.3933 28.3259 15.1933 28.108 14.9371 28.0955ZM11.4183 27.4168C11.1683 27.3296 10.9058 27.4541 10.8183 27.697C10.7308 27.9398 10.8621 28.2076 11.1058 28.2948C11.1558 28.3135 11.2121 28.3197 11.2621 28.3197C11.4558 28.3197 11.6371 28.2014 11.7058 28.0083C11.7871 27.7717 11.6621 27.504 11.4183 27.4168ZM18.4996 27.7094L18.6121 28.164L18.4996 27.7094C18.2496 27.7717 18.0996 28.027 18.1621 28.2761C18.2183 28.4878 18.4058 28.6248 18.6183 28.6248C18.6558 28.6248 18.6996 28.6186 18.7371 28.6123C18.7371 28.6123 18.7496 28.6123 18.7496 28.6061C18.9996 28.5376 19.1433 28.2823 19.0746 28.0332C19.0058 27.7966 18.7496 27.6472 18.4996 27.7094ZM20.1933 27.1241L20.3808 27.5538L20.1933 27.1241C19.9558 27.23 19.8433 27.504 19.9496 27.7406C20.0246 27.9149 20.1996 28.0208 20.3808 28.0208C20.4433 28.0208 20.5058 28.0083 20.5683 27.9834L20.5808 27.9772C20.8183 27.8713 20.9183 27.5974 20.8121 27.3607C20.7058 27.1241 20.4308 27.0183 20.1933 27.1241ZM9.62459 5.83455C9.69958 5.83455 9.77459 5.81587 9.84959 5.77851C10.0808 5.6602 10.1621 5.37376 10.0433 5.1496C9.92459 4.91921 9.63709 4.83826 9.41209 4.95657H9.40584C9.17459 5.07488 9.09334 5.36131 9.21834 5.58548C9.29333 5.74738 9.45584 5.83455 9.62459 5.83455ZM4.20584 11.0526C4.27459 11.09 4.34959 11.1087 4.42459 11.1087C4.59334 11.1087 4.75584 11.0153 4.83709 10.8596L4.84334 10.8409C4.95584 10.6105 4.86208 10.3303 4.63084 10.2182C4.39959 10.1062 4.11834 10.1996 4.00584 10.4237C3.88708 10.6479 3.97459 10.9281 4.20584 11.0526ZM3.54333 12.8086C3.59333 12.8273 3.64333 12.8335 3.69333 12.8335C3.88708 12.8335 4.06834 12.709 4.13708 12.516L4.14334 12.4973C4.21834 12.2482 4.08083 11.9867 3.83083 11.912C3.58708 11.8372 3.32458 11.9742 3.24958 12.2171C3.16833 12.4599 3.29958 12.7277 3.54333 12.8086ZM5.13084 9.41499C5.21209 9.47725 5.31209 9.50216 5.40584 9.50216C5.54959 9.50216 5.69334 9.43367 5.78709 9.30913L5.79333 9.3029C5.94334 9.09119 5.89334 8.80476 5.68709 8.65531C5.47459 8.50587 5.18084 8.55568 5.03084 8.76117L5.40584 9.03515L5.02459 8.76117C4.87459 8.97288 4.91833 9.26554 5.13084 9.41499ZM8.03084 6.8433C8.13084 6.8433 8.23083 6.81217 8.31209 6.7499C8.51834 6.60045 8.56834 6.30779 8.41209 6.09608C8.26209 5.89059 7.96834 5.84078 7.75584 5.99645L7.74334 6.00268C7.53709 6.15835 7.49334 6.45101 7.65584 6.6565C7.74959 6.78103 7.89334 6.8433 8.03084 6.8433ZM3.12458 19.8885C3.18708 20.0878 3.37458 20.2186 3.57458 20.2186C3.61834 20.2186 3.66833 20.2123 3.71209 20.1999C3.95584 20.1252 4.09959 19.8636 4.02459 19.6208C3.95584 19.3779 3.69958 19.2285 3.44958 19.297C3.19958 19.3655 3.04959 19.6208 3.11834 19.8699C3.11834 19.8761 3.12458 19.8823 3.12458 19.8885ZM6.61834 8.07621C6.73709 8.07621 6.86209 8.0264 6.95584 7.933C7.13709 7.75242 7.13709 7.45353 6.95584 7.27295C6.77459 7.09237 6.47459 7.09237 6.29333 7.27295L6.28709 7.27918C6.10583 7.46598 6.11208 7.75865 6.29333 7.93922C6.38084 8.03263 6.49959 8.07621 6.61834 8.07621ZM3.64333 17.8524C3.61208 17.5971 3.37458 17.4165 3.12458 17.4476C2.86834 17.4787 2.68708 17.7091 2.71209 17.9644V17.9831C2.74334 18.2135 2.94333 18.3816 3.17458 18.3816C3.19958 18.3816 3.21833 18.3816 3.24334 18.3754C3.49958 18.3443 3.68083 18.1077 3.64333 17.8524ZM3.05584 16.5136C3.06208 16.5136 3.06833 16.5136 3.06833 16.5136C3.31833 16.5136 3.53083 16.3143 3.53708 16.059V16.0403C3.53708 15.785 3.32458 15.5733 3.06833 15.5733C2.81208 15.5733 2.60583 15.7788 2.59958 16.0341C2.59333 16.2956 2.79333 16.5074 3.05584 16.5136ZM3.15583 14.6455C3.18084 14.6518 3.21208 14.6518 3.23708 14.6518C3.46208 14.6518 3.65583 14.4899 3.69958 14.2657C3.69958 14.2595 3.69958 14.2532 3.70583 14.247C3.74333 13.9917 3.56833 13.7551 3.31208 13.7177C3.05584 13.6804 2.82458 13.8547 2.78083 14.1038C2.73083 14.3591 2.89959 14.5957 3.15583 14.6455ZM25.2683 9.56443C25.3621 9.69519 25.5058 9.76369 25.6558 9.76369C25.7496 9.76369 25.8371 9.73878 25.9183 9.68274C26.1308 9.53952 26.1871 9.24686 26.0371 9.03515L25.6496 9.29668L26.0371 9.03515C25.8933 8.82344 25.5996 8.7674 25.3871 8.91061C25.1746 9.05383 25.1183 9.34649 25.2621 9.5582L25.2683 9.56443ZM27.6621 14.2657C27.4058 14.2968 27.2183 14.5272 27.2496 14.7825V14.8012C27.2808 15.0316 27.4808 15.1997 27.7121 15.1997C27.7371 15.1997 27.7558 15.1997 27.7808 15.1935C28.0371 15.1561 28.2121 14.9257 28.1808 14.6704C28.1496 14.4214 27.9183 14.2346 27.6621 14.2657ZM26.8683 12.9456C26.9308 13.1573 27.1183 13.2881 27.3183 13.2881C27.3621 13.2881 27.4058 13.2819 27.4496 13.2694C27.6996 13.1947 27.8433 12.9394 27.7683 12.6903V12.6841C27.6933 12.435 27.4371 12.2918 27.1871 12.3665C26.9433 12.4412 26.7996 12.6965 26.8683 12.9456ZM26.2121 11.2021C26.2933 11.3702 26.4621 11.4636 26.6371 11.4636C26.7058 11.4636 26.7746 11.4512 26.8433 11.4138C27.0746 11.3017 27.1746 11.0215 27.0558 10.7911L26.6308 10.9904L27.0558 10.7911C26.9433 10.5545 26.6683 10.4549 26.4308 10.567C26.1933 10.679 26.0933 10.953 26.2058 11.1896L26.2121 11.2021ZM24.0871 8.10735C24.1808 8.20075 24.2996 8.25057 24.4246 8.25057C24.5433 8.25057 24.6621 8.20698 24.7558 8.1198C24.9371 7.93922 24.9433 7.64656 24.7683 7.46598C24.5933 7.27918 24.2996 7.26673 24.1058 7.44108C23.9183 7.61543 23.9058 7.91432 24.0808 8.10112L24.0871 8.10735ZM27.8121 16.2147C27.5558 16.2085 27.3371 16.4077 27.3308 16.663C27.3183 16.9183 27.5183 17.1363 27.7746 17.1487C27.7808 17.1487 27.7933 17.1487 27.7996 17.1487C28.0433 17.1487 28.2558 16.9557 28.2683 16.7066V16.6879C28.2746 16.4326 28.0746 16.2209 27.8121 16.2147ZM21.0871 5.80964L21.0996 5.81587C21.1683 5.85323 21.2433 5.87191 21.3183 5.87191C21.4871 5.87191 21.6496 5.78474 21.7308 5.62284C21.8558 5.39867 21.7683 5.11224 21.5433 4.9877L21.3183 5.39867L21.5433 4.9877C21.3183 4.86316 21.0308 4.94411 20.9058 5.17451C20.7808 5.4049 20.8621 5.69133 21.0871 5.80964ZM22.6746 6.83707L22.6808 6.8433C22.7683 6.90557 22.8621 6.9367 22.9621 6.9367C23.1058 6.9367 23.2433 6.87443 23.3371 6.7499C23.4933 6.54441 23.4558 6.25175 23.2496 6.09608H23.2433C23.0371 5.94041 22.7433 5.97777 22.5871 6.18326C22.4308 6.38874 22.4683 6.6814 22.6746 6.83707ZM31.7121 23.2822L29.5121 21.0841C29.3246 20.8973 29.0746 20.7914 28.8121 20.7914C28.5496 20.7914 28.2996 20.8973 28.1121 21.0841L28.0621 21.1339L27.9183 20.9907C27.7371 20.8101 27.5996 20.6046 27.5058 20.3805C27.4996 20.3493 27.4871 20.3244 27.4746 20.2933C27.4058 20.094 27.3683 19.8761 27.3683 19.6581V19.0355C27.4121 19.0604 27.4558 19.0728 27.5058 19.0853C27.5308 19.0915 27.5621 19.0915 27.5871 19.0915C27.8121 19.0915 28.0058 18.9358 28.0496 18.7117C28.0996 18.4564 27.9371 18.2135 27.6808 18.1637C27.5683 18.1388 27.4558 18.1637 27.3683 18.2135C27.3371 17.5472 27.0683 16.9308 26.5933 16.4575L24.4496 14.3217C23.9683 13.8423 23.3308 13.5807 22.6558 13.5807C22.1308 13.5807 21.6308 13.7364 21.2121 14.0353L20.9871 13.8111V8.46851C20.9871 7.82714 20.7496 7.20446 20.3246 6.71876C20.0246 6.37629 19.8558 5.93418 19.8558 5.47339V5.0811H19.8871C20.4308 5.0811 20.8808 4.639 20.8808 4.09104V0.990068C20.8746 0.442106 20.4308 0 19.8871 0H11.1308C10.5871 0 10.1371 0.442106 10.1371 0.990068V4.09726C10.1371 4.639 10.5808 5.08733 11.1308 5.08733H11.2058V5.29282C11.2058 5.79719 11.0121 6.27043 10.6496 6.62536L9.70584 7.56561C9.20584 8.06376 8.93083 8.73003 8.93083 9.43989V12.4537C8.93083 12.8647 9.03084 13.2507 9.20584 13.5932C8.58709 13.6306 8.00584 13.8859 7.56209 14.328L5.42459 16.4575C4.92459 16.9557 4.64959 17.622 4.64959 18.3318V19.6644C4.64959 20.1687 4.45583 20.642 4.09959 20.9969L3.95583 21.1401L3.90583 21.0903C3.71833 20.9035 3.46833 20.7977 3.20583 20.7977C2.94333 20.7977 2.69333 20.9035 2.50583 21.0903L0.287085 23.2822C-0.100415 23.6682 -0.100415 24.2909 0.287085 24.677L1.04333 25.4304C1.22458 25.611 1.52458 25.611 1.70583 25.4304C1.88708 25.2498 1.88708 24.951 1.70583 24.7704L0.949585 24.0169C0.930835 23.9983 0.930835 23.9609 0.949585 23.9422L3.14959 21.7441C3.16833 21.7255 3.20583 21.7255 3.22458 21.7441L3.60583 22.124L8.83084 27.3358L9.41833 27.9212C9.43709 27.9398 9.43709 27.9772 9.41833 27.9959L7.21834 30.2002C7.19958 30.2189 7.16209 30.2189 7.14334 30.2002L3.03083 26.0967C2.84958 25.9161 2.54959 25.9161 2.36834 26.0967C2.18708 26.2773 2.18708 26.5762 2.36834 26.7567L6.48083 30.8602C6.66833 31.047 6.91834 31.1529 7.18084 31.1529C7.44334 31.1529 7.69334 31.047 7.88084 30.8602L10.0808 28.6622C10.4683 28.2761 10.4683 27.6534 10.0808 27.2673L10.0558 27.2424L10.3308 26.9685C10.6558 26.6447 11.0871 26.4516 11.5433 26.4205C12.1871 26.3769 12.7933 26.1029 13.2496 25.6484L15.2683 23.6309C15.8496 23.4814 16.3058 23.0082 16.4308 22.4104C16.6371 22.51 16.8683 22.5661 17.1183 22.5661C17.9996 22.5661 18.7183 21.85 18.7183 20.972V19.8636C18.9183 19.957 19.1433 20.0068 19.3808 20.0068C20.2621 20.0068 20.9808 19.2908 20.9808 18.4128V15.1312L22.4246 16.5759C22.5183 16.6693 22.6371 16.7128 22.7558 16.7128C22.8746 16.7128 22.9933 16.6693 23.0871 16.5759C23.2683 16.3953 23.2683 16.0964 23.0871 15.9158L21.8871 14.714C22.1183 14.5833 22.3808 14.521 22.6558 14.521C23.0808 14.521 23.4871 14.6891 23.7871 14.988L25.9246 17.1176C26.2496 17.4414 26.4308 17.871 26.4308 18.3318V19.6644C26.4308 20.4178 26.7246 21.1277 27.2558 21.657L27.3996 21.8002L26.7121 22.4789L22.5996 26.5824L22.3683 26.352L22.3621 26.3458L22.3246 26.3084C21.8371 25.8227 21.1933 25.5301 20.5121 25.4865C20.0933 25.4616 19.7058 25.281 19.4058 24.9883L17.8683 23.4627C17.6871 23.2822 17.3871 23.2822 17.2058 23.4627C17.0246 23.6433 17.0246 23.9422 17.2058 24.1228L18.7433 25.6484C19.1996 26.1029 19.8058 26.3769 20.4496 26.4205C20.9058 26.4516 21.3371 26.6447 21.6621 26.9685L21.6871 26.9934C21.6996 27.0058 21.7121 27.0183 21.7246 27.0307L21.9433 27.2487L21.9183 27.2736C21.5308 27.6596 21.5308 28.2823 21.9183 28.6684L24.1183 30.8665C24.3058 31.0533 24.5558 31.1591 24.8183 31.1591C25.0808 31.1591 25.3308 31.0533 25.5183 30.8665L31.7121 24.6894C32.0933 24.2971 32.0933 23.6682 31.7121 23.2822ZM27.6746 18.6432H27.6683L27.5808 18.6245L27.6746 18.6432ZM12.5933 24.9883C12.2996 25.281 11.9058 25.4616 11.4871 25.4865C10.7996 25.5301 10.1558 25.8227 9.67459 26.3084L9.39958 26.5824L9.14958 26.3333C9.14333 26.3271 9.14334 26.3271 9.13708 26.3209L4.60583 21.7939L4.74959 21.6507C5.28084 21.1215 5.57458 20.4116 5.57458 19.6581V18.3256C5.57458 17.8648 5.75584 17.4352 6.08084 17.1114L8.21834 14.9818C8.51834 14.6829 8.92459 14.5148 9.34959 14.5148C9.62459 14.5148 9.88708 14.5833 10.1183 14.714L8.91209 15.9158C8.73084 16.0964 8.73084 16.3953 8.91209 16.5759C9.00584 16.6693 9.12459 16.7128 9.24333 16.7128C9.36208 16.7128 9.48083 16.6693 9.57458 16.5759L11.0121 15.1375V20.9658C11.0121 21.8438 11.7308 22.5599 12.6121 22.5599C12.8621 22.5599 13.0933 22.5038 13.3058 22.4042C13.3996 22.865 13.6996 23.2573 14.0996 23.4814L12.5933 24.9883ZM20.0433 18.4128C20.0433 18.7802 19.7433 19.0728 19.3808 19.0728C19.0183 19.0728 18.7183 18.7739 18.7183 18.4128V13.2009C18.7183 12.9456 18.5058 12.7339 18.2496 12.7339C17.9933 12.7339 17.7808 12.9456 17.7808 13.2009V20.972C17.7808 21.3394 17.4871 21.6321 17.1183 21.6321C16.7933 21.6321 16.5183 21.3954 16.4683 21.0779V13.1947C16.4683 12.9394 16.2558 12.7277 15.9996 12.7277C15.9183 12.7277 15.8371 12.7526 15.7683 12.7899C15.6183 12.8709 15.5183 13.0266 15.5183 13.2009V20.972C15.5183 21.0343 15.5246 21.0903 15.5308 21.1464V22.0866C15.5308 22.454 15.2371 22.7467 14.8683 22.7467C14.5058 22.7467 14.2058 22.4478 14.2058 22.0866V13.1885C14.2058 12.9332 13.9933 12.7214 13.7371 12.7214C13.4808 12.7214 13.2683 12.9332 13.2683 13.1885V20.972C13.2683 21.3394 12.9746 21.6321 12.6058 21.6321C12.2433 21.6321 11.9433 21.3332 11.9433 20.972V12.2856C11.9433 12.0303 11.7308 11.8185 11.4746 11.8185C11.2183 11.8185 11.0058 12.0303 11.0058 12.2856V13.8921C10.9683 13.9045 10.9308 13.9232 10.8933 13.9481C10.2871 13.724 9.85583 13.1386 9.85583 12.4537V9.43989C9.85583 8.97911 10.0371 8.54946 10.3621 8.22566L11.3058 7.28541C11.8371 6.75612 12.1308 6.04626 12.1308 5.29282V5.08733H13.0746C13.3308 5.08733 13.5433 4.87562 13.5433 4.62032C13.5433 4.36502 13.3308 4.1533 13.0746 4.1533H11.1246C11.0933 4.1533 11.0683 4.1284 11.0683 4.09726V0.990068C11.0683 0.958934 11.0933 0.934026 11.1246 0.934026H19.8808C19.9121 0.934026 19.9371 0.958934 19.9371 0.990068V4.09726C19.9371 4.1284 19.9121 4.1533 19.8808 4.1533H15.2808C15.0246 4.1533 14.8121 4.36502 14.8121 4.62032C14.8121 4.87562 15.0246 5.08733 15.2808 5.08733H18.9121V5.47962C18.9121 6.16457 19.1621 6.82462 19.6121 7.34145C19.8871 7.65279 20.0371 8.05754 20.0371 8.47473V18.4128H20.0433ZM31.0496 24.0232L24.8558 30.2002C24.8433 30.2126 24.8308 30.2189 24.8183 30.2189C24.8058 30.2189 24.7933 30.2126 24.7808 30.2002L22.5808 28.0021C22.5621 27.9834 22.5621 27.9461 22.5808 27.9274L22.9371 27.5725L26.5308 23.9858L28.7746 21.7504C28.7933 21.7317 28.8308 21.7317 28.8496 21.7504L31.0496 23.9484C31.0683 23.9671 31.0683 23.9983 31.0496 24.0232ZM12.6121 2.0424C12.3371 2.0424 12.1121 2.26657 12.1121 2.54055C12.1121 2.81453 12.3371 3.0387 12.6121 3.0387C12.8871 3.0387 13.1121 2.81453 13.1121 2.54055C13.1121 2.26657 12.8871 2.0424 12.6121 2.0424ZM28.9621 23.332C28.6871 23.332 28.4621 23.5561 28.4621 23.8301C28.4621 24.1041 28.6871 24.3283 28.9621 24.3283C29.2371 24.3283 29.4621 24.1041 29.4621 23.8301C29.4621 23.5561 29.2371 23.332 28.9621 23.332ZM7.81209 28.0955C7.81209 27.8215 7.58709 27.5974 7.31209 27.5974C7.03709 27.5974 6.81209 27.8215 6.81209 28.0955C6.81209 28.3695 7.03709 28.5937 7.31209 28.5937C7.58709 28.5937 7.81209 28.3695 7.81209 28.0955Z" fill="#4E4E4E"/>
</g>
<defs>
<clipPath id="clip0">
<rect width="32" height="31.1467" fill="white"/>
</clipPath>
</defs>
</svg>
