<svg width="49" height="59" viewBox="0 0 49 59" fill="none" xmlns="http://www.w3.org/2000/svg">
<path d="M38.8378 33.5396L21.3667 41.1288V42.9649L37.3032 41.2512L38.8378 33.5396Z" fill="#014064"/>
<path d="M20.4223 46.2696L7.67314 35.3754L14.5199 29.6223V17.6265L0 29.1327V41.7406L20.4223 58.9999V46.2696Z" fill="#009091"/>
<path d="M20.4223 46.2697L7.67314 35.3755L0 41.7406L20.4223 59V46.2697Z" fill="#03726E"/>
<path d="M20.4223 46.2697L7.67314 35.3755L0 41.7406L20.4223 58.8776V46.2697Z" fill="#03736F"/>
<path d="M20.4223 46.2697L7.67314 35.3755L0 41.7406L20.4223 58.8776V46.2697Z" fill="#037470"/>
<path d="M20.4223 46.2697L7.67314 35.3755L0 41.7406L20.4223 58.8776V46.2697Z" fill="#037571"/>
<path d="M20.4223 46.2697L7.67314 35.3755L0 41.7406L20.4223 58.8776V46.2697Z" fill="#037572"/>
<path d="M20.4223 46.2697L7.67314 35.3755L0 41.6182L20.4223 58.8776V46.2697Z" fill="#037673"/>
<path d="M20.4223 46.2697L7.67314 35.3755L0 41.6182L20.4223 58.8776V46.2697Z" fill="#027774"/>
<path d="M20.4223 46.2697L7.67314 35.3755L0 41.6182L20.4223 58.8776V46.2697Z" fill="#027875"/>
<path d="M20.4223 46.2697L7.67314 35.3755L0 41.6182L20.4223 58.7552V46.2697Z" fill="#027976"/>
<path d="M20.4223 46.2697L7.67314 35.3755L0 41.6182L20.4223 58.7552V46.2697Z" fill="#027A77"/>
<path d="M20.4223 46.2697L7.55509 35.3755L0 41.6182L20.4223 58.7552V46.2697Z" fill="#027A78"/>
<path d="M20.4223 46.2697L7.55509 35.3755L0 41.6182L20.4223 58.7552V46.2697Z" fill="#027B79"/>
<path d="M20.4223 46.1473L7.55509 35.3755L0 41.4958L20.4223 58.7552V46.1473Z" fill="#027C7A"/>
<path d="M20.4223 46.1473L7.55509 35.3755L0 41.4958L20.4223 58.7552V46.1473Z" fill="#027D7B"/>
<path d="M20.4223 46.1473L7.55509 35.3755L0 41.4958L20.4223 58.7552V46.1473Z" fill="#027E7C"/>
<path d="M20.4223 46.1473L7.55509 35.3755L0 41.4958L20.4223 58.7552V46.1473Z" fill="#027F7D"/>
<path d="M20.4223 46.1471L7.55509 35.2529L0 41.4957L20.4223 58.6326V46.1471Z" fill="#027F7E"/>
<path d="M20.4223 46.1471L7.55509 35.2529L0 41.4957L20.4223 58.6326V46.1471Z" fill="#02807F"/>
<path d="M20.4223 46.1471L7.55509 35.2529L0 41.4957L20.4223 58.6326V46.1471Z" fill="#028180"/>
<path d="M20.4223 46.1471L7.55509 35.2529L0 41.4957L20.4223 58.6326V46.1471Z" fill="#018280"/>
<path d="M20.4223 46.1471L7.55509 35.2529L0 41.3733L20.4223 58.6326V46.1471Z" fill="#018381"/>
<path d="M20.4223 46.1471L7.43704 35.2529L0 41.3733L20.4223 58.6326V46.1471Z" fill="#018382"/>
<path d="M20.4223 46.1471L7.43704 35.2529L0 41.3733L20.4223 58.6326V46.1471Z" fill="#018483"/>
<path d="M20.4223 46.1471L7.43704 35.2529L0 41.3733L20.4223 58.5102V46.1471Z" fill="#018584"/>
<path d="M20.4223 46.1471L7.43704 35.2529L0 41.3733L20.4223 58.5102V46.1471Z" fill="#018685"/>
<path d="M20.4223 46.1471L7.43704 35.2529L0 41.3733L20.4223 58.5102V46.1471Z" fill="#018786"/>
<path d="M20.4223 46.1471L7.43704 35.2529L0 41.3733L20.4223 58.5102V46.1471Z" fill="#018887"/>
<path d="M20.4223 46.1471L7.43704 35.2529L0 41.2509L20.4223 58.5102V46.1471Z" fill="#018888"/>
<path d="M20.4223 46.1471L7.43704 35.2529L0 41.2509L20.4223 58.5102V46.1471Z" fill="#018989"/>
<path d="M20.4223 46.1471L7.43704 35.2529L0 41.2509L20.4223 58.5102V46.1471Z" fill="#018A8A"/>
<path d="M20.4223 46.1471L7.43704 35.2529L0 41.2509L20.4223 58.5102V46.1471Z" fill="#018B8B"/>
<path d="M20.4223 46.1472L7.31899 35.1306L0 41.2509L20.4223 58.3879V46.1472Z" fill="#008C8C"/>
<path d="M20.4223 46.1472L7.31899 35.1306L0 41.2509L20.4223 58.3879V46.1472Z" fill="#008D8D"/>
<path d="M20.4223 46.1472L7.31899 35.1306L0 41.2509L20.4223 58.3879V46.1472Z" fill="#008D8E"/>
<path d="M20.4223 46.1472L7.31899 35.1306L0 41.2509L20.4223 58.3879V46.1472Z" fill="#008E8F"/>
<path d="M20.4223 46.1472L7.31899 35.1306L0 41.1285L20.4223 58.3879V46.1472Z" fill="#008F90"/>
<path d="M20.4223 46.1472L7.31899 35.1306L0 41.1285L20.4223 58.3879V46.1472Z" fill="#009091"/>
<path d="M14.5199 29.6223V17.6265L0 29.1327V41.7406L14.5199 29.6223Z" fill="#00DFCB"/>
<path d="M14.5199 29.6223V17.6265L0 29.1327V41.7406L14.5199 29.6223Z" fill="#30F9DF"/>
<path d="M14.4019 29.6224V17.8713L0.118042 29.2552V41.6182L14.4019 29.6224Z" fill="url(#paint0_radial)"/>
<path d="M14.2838 29.4999L14.1658 18.2385L0.118042 29.3775L0.23609 41.3734L14.2838 29.4999Z" fill="url(#paint1_radial)"/>
<path d="M15.7004 28.888L28.9218 17.8714L22.075 12.1183V0L36.595 11.5062V24.1141L15.7004 41.3734V28.888Z" fill="url(#paint2_radial)"/>
<path opacity="0.41" d="M36.4769 24.2365L20.3043 25.0933L28.9218 17.8713L36.4769 24.2365Z" fill="#911808"/>
<path d="M36.477 24.2365L22.1931 23.502L28.9219 17.8713" fill="#701208"/>
<path d="M36.4769 24.2365L20.4224 22.4004L28.9218 17.8713L36.4769 24.2365Z" fill="url(#paint3_radial)"/>
<path d="M36.4769 24.2365L20.6584 22.4004L28.9218 17.8713L36.4769 24.2365Z" fill="url(#paint4_radial)"/>
<path d="M36.4769 24.1141L20.8945 22.278L28.9218 17.8713L36.4769 24.1141Z" fill="url(#paint5_radial)"/>
<path opacity="0.41" d="M25.6165 19.8298L28.9218 17.8713L36.5949 24.1141L25.6165 19.8298Z" fill="#911808"/>
<path d="M27.8594 18.4834L28.9218 17.8713L36.5949 24.1141L27.8594 18.4834Z" fill="#701208"/>
<path d="M36.3589 23.9917L15.7004 41.0062V41.3734L36.595 24.1141L36.3589 23.9917Z" fill="#BC1E13"/>
<path d="M22.0751 12.1183V0L36.595 11.5062V24.1141L22.0751 12.1183Z" fill="#FC9568"/>
<path d="M22.1931 11.9959L22.3112 0.612061L36.477 11.8735V23.8693L22.1931 11.9959Z" fill="url(#paint6_radial)"/>
<path d="M22.4292 11.9958L22.5472 1.10156L36.3589 12.2406V23.6244L22.4292 11.9958Z" fill="url(#paint7_radial)"/>
<path d="M20.4223 46.2697L7.6731 35.3755L7.55505 35.4979L19.9501 46.2697H20.4223Z" fill="#0AA09A"/>
<path d="M36.4769 31.3362L28.2135 31.4586L16.1726 41.2511H48.7539L36.4769 31.3362Z" fill="#38CAFC"/>
<path d="M36.3588 31.5808L27.8594 31.7032L16.5267 40.8837H48.1637L36.3588 31.5808Z" fill="url(#paint8_radial)"/>
<path d="M32.8174 31.3362L28.3316 31.4586L16.4087 41.1287L32.8174 31.3362Z" fill="#005E91"/>
<path opacity="0.5" d="M11.8048 38.9253L7.67314 35.3755L0 41.7406L11.8048 38.9253Z" fill="#016264"/>
<path opacity="0.5" d="M9.67996 37.0892L7.67314 35.3755L0 41.7406L9.67996 37.0892Z" fill="#016264"/>
<defs>
<radialGradient id="paint0_radial" cx="0" cy="0" r="1" gradientUnits="userSpaceOnUse" gradientTransform="translate(15.2093 19.4671) rotate(-35.8142) scale(44.334 25.8715)">
<stop offset="0.1129" stop-color="#18ECCF"/>
<stop offset="1" stop-color="#18E4DF"/>
</radialGradient>
<radialGradient id="paint1_radial" cx="0" cy="0" r="1" gradientUnits="userSpaceOnUse" gradientTransform="translate(15.0767 19.7739) rotate(-35.8142) scale(43.378 25.3137)">
<stop offset="0.1129" stop-color="#01DFBE"/>
<stop offset="1" stop-color="#01D0DF"/>
</radialGradient>
<radialGradient id="paint2_radial" cx="0" cy="0" r="1" gradientUnits="userSpaceOnUse" gradientTransform="translate(26.145 20.68) scale(15.9094 16.4967)">
<stop offset="0.016129" stop-color="#CC1B02"/>
<stop offset="1" stop-color="#ED1E03"/>
</radialGradient>
<radialGradient id="paint3_radial" cx="0" cy="0" r="1" gradientUnits="userSpaceOnUse" gradientTransform="translate(28.4384 21.0753) scale(6.1064 6.33185)">
<stop offset="0.0591398" stop-color="#F29442"/>
<stop offset="1" stop-color="#F27E42"/>
</radialGradient>
<radialGradient id="paint4_radial" cx="0" cy="0" r="1" gradientUnits="userSpaceOnUse" gradientTransform="translate(28.5566 21.0326) scale(5.9893 6.21042)">
<stop offset="0.0591398" stop-color="#F27F23"/>
<stop offset="1" stop-color="#F26523"/>
</radialGradient>
<radialGradient id="paint5_radial" cx="0" cy="0" r="1" gradientUnits="userSpaceOnUse" gradientTransform="translate(28.6749 20.9898) scale(5.87219 6.089)">
<stop offset="0.0591398" stop-color="#F26A03"/>
<stop offset="1" stop-color="#F24C03"/>
</radialGradient>
<radialGradient id="paint6_radial" cx="0" cy="0" r="1" gradientUnits="userSpaceOnUse" gradientTransform="translate(22.2988 7.9729) rotate(18.0729) scale(14.452 17.1067)">
<stop offset="0.0591398" stop-color="#F78036"/>
<stop offset="1" stop-color="#F77136"/>
</radialGradient>
<radialGradient id="paint7_radial" cx="0" cy="0" r="1" gradientUnits="userSpaceOnUse" gradientTransform="translate(22.496 8.26418) rotate(18.0729) scale(14.0423 16.6217)">
<stop offset="0.0591398" stop-color="#F26A03"/>
<stop offset="1" stop-color="#F24C03"/>
</radialGradient>
<radialGradient id="paint8_radial" cx="0" cy="0" r="1" gradientUnits="userSpaceOnUse" gradientTransform="translate(33.194 31.3655) scale(47.5448 25.5227)">
<stop offset="0.1129" stop-color="#01B3DF"/>
<stop offset="1" stop-color="#0183DF"/>
</radialGradient>
</defs>
</svg>
